<svg width="571" height="510" viewBox="0 0 571 510" fill="none" xmlns="http://www.w3.org/2000/svg">
<g clip-path="url(#clip0)">
<g opacity="0.25">
<g filter="url(#filter0_d)">
<path opacity="0.25" d="M307.484 432.507C305.719 431.488 304.838 430.152 304.839 428.817C304.84 427.484 304.839 426.866 304.839 425.714L328.473 413.016C332 410.98 337.719 410.98 341.246 413.016L364.88 425.624C364.88 426.743 364.886 427.494 364.88 428.833C364.874 430.163 363.992 431.492 362.234 432.506L341.245 444.623C337.718 446.66 332 446.66 328.473 444.623L307.484 432.507Z" fill="url(#paint0_linear)"/>
</g>
<path d="M299.118 430.609C296.815 429.279 295.664 427.536 295.666 425.793C295.668 424.053 295.666 423.248 295.666 421.744L326.508 405.174C331.111 402.516 338.574 402.516 343.177 405.174L374.018 421.626C374.018 423.087 374.026 424.068 374.018 425.815C374.01 427.55 372.859 429.284 370.566 430.608L343.176 446.42C338.573 449.078 331.11 449.078 326.507 446.42L299.118 430.609Z" fill="url(#paint1_linear)"/>
<path d="M299.119 426.636C294.516 423.978 294.516 419.67 299.119 417.013L326.508 401.201C331.111 398.544 338.573 398.544 343.176 401.201L370.565 417.013C375.168 419.67 375.168 423.978 370.565 426.636L343.176 442.447C338.573 445.105 331.111 445.105 326.508 442.447L299.119 426.636Z" fill="url(#paint2_radial)"/>
<path fill-rule="evenodd" clip-rule="evenodd" d="M322.523 414.037C315.077 418.336 314.551 425.011 321.351 428.936C328.15 432.861 339.712 432.558 347.159 428.259C354.606 423.96 355.131 417.285 348.332 413.36C341.532 409.435 329.97 409.738 322.523 414.037ZM345.369 427.226C341.807 429.282 337.128 430.267 332.691 430.145C335.155 429.377 336.821 427.846 336.966 426.009C336.98 425.82 336.97 425.627 336.943 425.425C339.21 425.851 341.441 425.435 342.897 424.594C345.389 423.156 345.136 420.591 342.507 418.761C339.878 416.932 335.737 416.639 333.354 418.015C332.427 418.55 331.831 419.15 331.515 419.778C330.098 418.586 328.778 417.471 328.335 417.091C327.966 416.776 327.558 416.737 327.237 416.706L327.216 416.704C326.679 416.654 326.35 416.682 326.053 416.854L322.618 418.837C322.42 418.951 322.399 419.105 322.551 419.255C322.718 419.424 323.208 419.842 323.478 420.019C323.715 420.166 323.985 420.114 324.201 419.99L326.71 418.541L327.883 419.516C329.779 421.092 332.282 423.172 333.003 423.783C333.543 424.23 334.245 425.228 334.154 426.286C334.034 427.805 331.82 429.425 328.921 429.506C327.923 429.532 325.906 429.302 323.303 427.799C317.497 424.448 317.947 418.736 324.305 415.066C330.664 411.395 340.565 411.14 346.371 414.492C352.177 417.844 351.727 423.555 345.369 427.226ZM334.931 419.134C333.384 420.027 333.614 421.686 335.327 422.934C337.337 424.448 339.85 424.372 341.136 423.63C342.584 422.794 342.284 421.156 340.571 419.907C338.858 418.659 336.307 418.339 334.931 419.134Z" fill="#212124"/>
</g>
<g opacity="0.5">
<g filter="url(#filter1_d)">
<path opacity="0.5" d="M208.929 375.477C207.164 374.458 206.282 373.123 206.284 371.787C206.285 370.454 206.284 369.836 206.284 368.684L229.918 355.986C233.445 353.95 239.164 353.95 242.691 355.986L266.324 368.594C266.324 369.713 266.331 370.465 266.324 371.804C266.318 373.133 265.437 374.462 263.679 375.477L242.69 387.594C239.163 389.63 233.444 389.63 229.917 387.594L208.929 375.477Z" fill="url(#paint3_linear)"/>
</g>
<path d="M200.563 373.579C198.26 372.249 197.109 370.506 197.111 368.764C197.112 367.024 197.111 366.218 197.111 364.715L227.953 348.144C232.556 345.487 240.018 345.487 244.621 348.144L275.463 364.596C275.463 366.057 275.471 367.038 275.463 368.785C275.455 370.52 274.304 372.254 272.01 373.578L244.62 389.391C240.018 392.048 232.555 392.048 227.952 389.391L200.563 373.579Z" fill="url(#paint4_linear)"/>
<path d="M200.563 369.606C195.96 366.949 195.96 362.64 200.563 359.983L227.953 344.171C232.555 341.514 240.018 341.514 244.621 344.171L272.01 359.983C276.613 362.64 276.613 366.949 272.01 369.606L244.621 385.418C240.018 388.075 232.555 388.075 227.953 385.418L200.563 369.606Z" fill="url(#paint5_radial)"/>
<path d="M222.282 360.318C222.282 361.775 222.954 363.134 224.216 364.347C222.954 365.561 222.282 366.92 222.282 368.376C222.282 370.609 223.795 372.648 226.318 374.104V365.949C226.906 366.289 227.663 366.629 228.336 366.92V375.075C229.513 375.56 230.858 375.949 232.288 376.191V370.949C231.026 370.318 230.27 369.396 230.354 368.376C230.354 368.085 230.354 367.891 230.438 367.648C232.288 368.134 234.221 368.376 236.324 368.425C238.341 368.425 240.444 368.182 242.209 367.648C242.293 367.891 242.377 368.134 242.293 368.376C242.293 369.444 241.453 370.318 240.359 370.949V376.191C241.789 375.949 243.134 375.56 244.311 375.075V366.92C244.984 366.629 245.741 366.289 246.329 365.949V374.104C248.852 372.648 250.365 370.609 250.281 368.425C250.281 366.969 249.524 365.561 248.431 364.347C249.609 363.182 250.365 361.775 250.281 360.27C250.281 355.804 243.975 352.164 236.239 352.164C228.504 352.164 222.198 355.804 222.282 360.318ZM242.377 360.27C242.377 362.212 239.687 363.765 236.408 363.716C233.128 363.668 230.354 362.163 230.438 360.27C230.438 358.328 233.128 356.775 236.408 356.824C239.687 356.872 242.293 358.377 242.377 360.27Z" fill="#0037FF"/>
<path d="M236.324 371.92C235.651 371.92 234.978 371.823 234.306 371.726V376.483C234.894 376.531 235.651 376.58 236.324 376.58C236.996 376.58 237.669 376.58 238.342 376.483V371.726C237.669 371.823 237.08 371.871 236.324 371.92Z" fill="#0037FF"/>
</g>
<g opacity="0.5">
<g filter="url(#filter2_d)">
<path opacity="0.5" d="M406.039 375.477C404.275 374.458 403.393 373.123 403.394 371.787C403.395 370.454 403.394 369.836 403.394 368.684L427.028 355.986C430.556 353.95 436.274 353.95 439.801 355.986L463.435 368.594C463.435 369.713 463.441 370.465 463.435 371.804C463.429 373.133 462.547 374.462 460.79 375.477L439.801 387.594C436.274 389.63 430.555 389.63 427.028 387.594L406.039 375.477Z" fill="url(#paint6_linear)"/>
</g>
<path d="M397.673 373.579C395.37 372.249 394.219 370.506 394.221 368.764C394.223 367.024 394.221 366.218 394.221 364.715L425.063 348.144C429.666 345.487 437.129 345.487 441.732 348.144L472.573 364.596C472.573 366.057 472.581 367.038 472.573 368.785C472.565 370.52 471.414 372.254 469.121 373.578L441.731 389.391C437.128 392.048 429.665 392.048 425.062 389.391L397.673 373.579Z" fill="url(#paint7_linear)"/>
<path d="M397.674 369.606C393.071 366.949 393.071 362.64 397.674 359.983L425.063 344.171C429.666 341.514 437.129 341.514 441.731 344.171L469.121 359.983C473.723 362.64 473.723 366.949 469.121 369.606L441.731 385.418C437.129 388.075 429.666 388.075 425.063 385.418L397.674 369.606Z" fill="url(#paint8_radial)"/>
<path d="M416.549 368.735L424.243 370.058L443.927 358.694L441.594 354.276L416.549 368.735Z" fill="#2E2E2E"/>
<path d="M425.951 371.092L433.686 372.438L448.081 364.128L445.677 359.704L425.951 371.092Z" fill="#2E2E2E"/>
</g>
<g opacity="0.5">
<g filter="url(#filter3_d)">
<path opacity="0.5" d="M307.484 318.447C305.719 317.429 304.838 316.093 304.839 314.757C304.84 313.424 304.839 312.807 304.839 311.655L328.473 298.957C332 296.92 337.719 296.92 341.246 298.957L364.88 311.564C364.88 312.683 364.886 313.435 364.88 314.774C364.874 316.104 363.992 317.432 362.234 318.447L341.245 330.564C337.718 332.6 332 332.6 328.473 330.564L307.484 318.447Z" fill="url(#paint9_linear)"/>
</g>
<path d="M299.118 316.549C296.815 315.22 295.664 313.477 295.666 311.734C295.668 309.994 295.666 309.188 295.666 307.685L326.508 291.114C331.111 288.457 338.574 288.457 343.177 291.114L374.018 307.567C374.018 309.027 374.026 310.008 374.018 311.755C374.01 313.491 372.859 315.225 370.566 316.549L343.176 332.361C338.573 335.018 331.11 335.018 326.507 332.361L299.118 316.549Z" fill="url(#paint10_linear)"/>
<path d="M299.119 312.576C294.516 309.919 294.516 305.611 299.119 302.954L326.508 287.142C331.111 284.485 338.573 284.485 343.176 287.142L370.565 302.954C375.168 305.611 375.168 309.919 370.565 312.576L343.176 328.388C338.573 331.045 331.111 331.045 326.508 328.388L299.119 312.576Z" fill="url(#paint11_radial)"/>
<path d="M336.553 292.311L307.394 309.145L335.76 325.521L364.92 308.687L336.553 292.311Z" fill="black"/>
<path d="M337.132 291.977L307.973 308.811L336.34 325.186L365.499 308.353L337.132 291.977Z" fill="black"/>
<path d="M336.553 292.311L307.973 308.811L335.762 324.853L364.342 308.354L336.553 292.311Z" fill="url(#paint12_radial)"/>
<path fill-rule="evenodd" clip-rule="evenodd" d="M325.036 302.8C319.248 306.141 319.235 311.55 325.007 314.882C330.779 318.214 340.149 318.207 345.937 314.866C351.726 311.524 351.738 306.115 345.966 302.783C340.195 299.451 330.824 299.458 325.036 302.8ZM325.805 303.243C331.158 300.153 339.858 300.145 345.196 303.227C350.535 306.309 350.523 311.331 345.169 314.422C339.815 317.513 331.116 317.52 325.777 314.438C320.439 311.356 320.451 306.334 325.805 303.243Z" fill="#80C242"/>
<path d="M333.164 310.448L332.092 311.066L339.133 315.131C339.627 315.037 340.163 314.893 340.632 314.759L333.164 310.448ZM334.713 309.005L343.024 313.803C343.23 313.747 343.508 313.654 343.661 313.566C343.851 313.456 344.059 313.364 344.191 313.243L335.785 308.386L334.714 309.005H334.713ZM346.821 308.845C346.801 308.39 346.704 307.881 346.524 307.435L341.147 304.331L340.075 304.95L346.821 308.845ZM329.991 312.784L329.626 309.695L332.87 308.835L334.315 303.84L339.255 303.754L339.515 302.428L338.917 302.303L338.684 303.432L333.886 303.534L332.411 308.604L329.107 309.447L329.437 312.703L328.164 313.886L328.547 314.106L329.991 312.784ZM332.205 313.469L331.133 314.088L333.213 315.288C333.968 315.379 334.783 315.398 335.55 315.4L332.205 313.469ZM336.744 305.364L335.672 305.983L345.716 311.782C345.943 311.506 346.184 311.194 346.34 310.904L336.744 305.364Z" fill="#1E311E"/>
</g>
<g opacity="0.25">
<g filter="url(#filter4_d)">
<path opacity="0.25" d="M217.681 493.92C215.916 492.901 215.034 491.566 215.035 490.23C215.037 488.897 215.035 488.28 215.035 487.128L238.67 474.43C242.197 472.393 247.916 472.393 251.443 474.43L275.076 487.037C275.076 488.156 275.082 488.908 275.076 490.247C275.07 491.577 274.188 492.905 272.431 493.92L251.442 506.037C247.915 508.073 242.196 508.073 238.669 506.037L217.681 493.92Z" fill="url(#paint13_linear)"/>
</g>
<path d="M209.315 492.022C207.011 490.693 205.861 488.95 205.862 487.207C205.864 485.467 205.862 484.661 205.862 483.158L236.705 466.587C241.308 463.93 248.77 463.93 253.373 466.587L284.214 483.04C284.214 484.5 284.222 485.481 284.214 487.228C284.206 488.964 283.056 490.698 280.762 492.022L253.372 507.834C248.769 510.491 241.307 510.491 236.704 507.834L209.315 492.022Z" fill="url(#paint14_linear)"/>
<path d="M209.315 488.049C204.712 485.392 204.712 481.084 209.315 478.426L236.704 462.615C241.307 459.957 248.77 459.957 253.373 462.615L280.762 478.426C285.365 481.084 285.365 485.392 280.762 488.049L253.373 503.861C248.77 506.518 241.307 506.518 236.704 503.861L209.315 488.049Z" fill="url(#paint15_radial)"/>
<path fill-rule="evenodd" clip-rule="evenodd" d="M225.494 485.1L230.737 483.315L246.081 492.173L242.48 494.906L225.494 485.1Z" fill="#5391CC"/>
<path fill-rule="evenodd" clip-rule="evenodd" d="M225.494 485.1L224.139 486.928L239.767 495.949L242.48 494.906L225.494 485.1Z" fill="#1D5D9A"/>
<path fill-rule="evenodd" clip-rule="evenodd" d="M248.379 471.888L245.287 474.915L260.631 483.773L265.365 481.694L248.379 471.888Z" fill="#1D5D9A"/>
<path fill-rule="evenodd" clip-rule="evenodd" d="M248.379 471.888L251.545 471.106L267.172 480.128L265.365 481.694L248.379 471.888Z" fill="#5391CC"/>
<path d="M235.918 474.318L229.702 477.906L254.253 492.079L260.469 488.491L235.918 474.318Z" fill="#2572B8"/>
<path fill-rule="evenodd" clip-rule="evenodd" d="M227.264 481.31L229.702 477.906L254.253 492.079L248.472 493.554L227.264 481.31Z" fill="#1D5D9A"/>
<path fill-rule="evenodd" clip-rule="evenodd" d="M235.918 474.318L241.987 473.01L262.619 484.921L260.469 488.491L235.918 474.318Z" fill="#5391CC"/>
</g>
<g opacity="0.5">
<g filter="url(#filter5_d)">
<path opacity="0.5" d="M406.039 261.418C404.275 260.399 403.393 259.063 403.394 257.728C403.395 256.394 403.394 255.777 403.394 254.625L427.028 241.927C430.556 239.891 436.274 239.891 439.801 241.927L463.435 254.534C463.435 255.654 463.441 256.405 463.435 257.744C463.429 259.074 462.547 260.403 460.79 261.417L439.801 273.534C436.274 275.57 430.555 275.571 427.028 273.534L406.039 261.418Z" fill="url(#paint16_linear)"/>
</g>
<path d="M397.673 259.52C395.37 258.19 394.219 256.447 394.221 254.704C394.223 252.964 394.221 252.159 394.221 250.655L425.063 234.085C429.666 231.427 437.129 231.427 441.732 234.085L472.573 250.537C472.573 251.998 472.581 252.978 472.573 254.726C472.565 256.461 471.414 258.195 469.121 259.519L441.731 275.331C437.128 277.989 429.665 277.989 425.062 275.331L397.673 259.52Z" fill="url(#paint17_linear)"/>
<path d="M397.674 255.547C393.071 252.889 393.071 248.581 397.674 245.924L425.063 230.112C429.666 227.455 437.129 227.455 441.731 230.112L469.121 245.924C473.723 248.581 473.723 252.889 469.121 255.547L441.731 271.358C437.129 274.016 429.666 274.016 425.063 271.358L397.674 255.547Z" fill="url(#paint18_radial)"/>
<path d="M448.312 244.585L434.676 251.847L422.14 259.694L441.243 255.638L448.312 244.585Z" fill="#FBBF93"/>
<path d="M420.289 258.625L436.028 249.54L421.482 241.143L417.53 241.898L410.989 253.257L420.289 258.625Z" fill="#9D5025"/>
<path d="M453.028 247.257L438.025 253.73L426.813 262.391L449.308 260.193L453.028 247.257Z" fill="#FBBF93"/>
<path d="M433.397 251.058L440.324 247.06L430.407 241.334L427.597 242.041L424.097 245.689L433.397 251.058Z" fill="#9D5025"/>
<path d="M438.307 248.224L443.656 245.136L437.22 241.421L435.245 242.053L432.048 244.611L438.307 248.224Z" fill="#9D5025"/>
<path d="M442.121 246.022L446.461 243.516L439.056 239.191L437.212 239.645L434.716 241.747L442.121 246.022Z" fill="#9D5025"/>
<path d="M421.482 241.143L417.53 241.898L433.397 251.058L436.028 249.54L421.482 241.143Z" fill="#F58536"/>
<path d="M430.407 241.334L427.597 242.041L438.307 248.224L440.324 247.06L430.407 241.334Z" fill="#F58536"/>
<path d="M437.22 241.421L435.245 242.052L442.121 246.022L443.655 245.136L437.22 241.421Z" fill="#F58536"/>
<path d="M437.212 239.645L439.056 239.191L446.505 243.491L445.19 244.25L437.212 239.645Z" fill="#F58536"/>
<path d="M451.089 246.188L441.243 255.638L436.527 252.916L448.312 244.585L451.089 246.188Z" fill="#F58536"/>
<path d="M453.028 247.257L444.549 257.547L449.221 260.244L455.761 248.835L453.028 247.257Z" fill="#F58536"/>
<path d="M426.813 262.391L444.505 257.521L449.221 260.244L429.589 263.994L426.813 262.391Z" fill="#9D5025"/>
<path d="M422.14 259.694L436.527 252.916L441.243 255.638L424.917 261.297L422.14 259.694Z" fill="#9D5025"/>
</g>
<g opacity="0.5">
<g filter="url(#filter6_d)">
<path opacity="0.5" d="M307.484 204.388C305.719 203.369 304.838 202.033 304.839 200.698C304.84 199.365 304.839 198.747 304.839 197.595L328.473 184.897C332 182.861 337.719 182.861 341.246 184.897L364.88 197.505C364.88 198.624 364.886 199.375 364.88 200.714C364.874 202.044 363.992 203.373 362.234 204.387L341.245 216.504C337.718 218.541 332 218.541 328.473 216.504L307.484 204.388Z" fill="url(#paint19_linear)"/>
</g>
<path d="M299.118 202.49C296.815 201.16 295.664 199.417 295.666 197.674C295.668 195.934 295.666 195.129 295.666 193.625L326.508 177.055C331.111 174.397 338.574 174.397 343.177 177.055L374.018 193.507C374.018 194.968 374.026 195.949 374.018 197.696C374.01 199.431 372.859 201.165 370.566 202.489L343.176 218.301C338.573 220.959 331.11 220.959 326.507 218.301L299.118 202.49Z" fill="url(#paint20_linear)"/>
<path d="M299.119 198.517C294.516 195.859 294.516 191.551 299.119 188.894L326.508 173.082C331.111 170.425 338.573 170.425 343.176 173.082L370.565 188.894C375.168 191.551 375.168 195.859 370.565 198.517L343.176 214.328C338.573 216.986 331.111 216.986 326.508 214.328L299.119 198.517Z" fill="url(#paint21_radial)"/>
<path fill-rule="evenodd" clip-rule="evenodd" d="M315.25 194.93L320.493 193.145L335.837 202.004L332.236 204.736L315.25 194.93Z" fill="#5391CC"/>
<path fill-rule="evenodd" clip-rule="evenodd" d="M315.25 194.93L313.895 196.758L329.522 205.78L332.236 204.736L315.25 194.93Z" fill="#1D5D9A"/>
<path fill-rule="evenodd" clip-rule="evenodd" d="M338.134 181.719L335.043 184.745L350.387 193.604L355.121 191.525L338.134 181.719Z" fill="#1D5D9A"/>
<path fill-rule="evenodd" clip-rule="evenodd" d="M338.134 181.719L341.301 180.937L356.928 189.958L355.121 191.525L338.134 181.719Z" fill="#5391CC"/>
<path d="M325.674 184.148L319.458 187.736L344.009 201.91L350.224 198.321L325.674 184.148Z" fill="#2572B8"/>
<path fill-rule="evenodd" clip-rule="evenodd" d="M317.02 191.14L319.458 187.737L344.009 201.91L338.228 203.384L317.02 191.14Z" fill="#1D5D9A"/>
<path fill-rule="evenodd" clip-rule="evenodd" d="M325.674 184.148L331.743 182.84L352.375 194.751L350.224 198.321L325.674 184.148Z" fill="#5391CC"/>
</g>
<g opacity="0.5">
<g filter="url(#filter7_d)">
<path opacity="0.5" d="M208.929 147.358C207.164 146.339 206.282 145.004 206.284 143.668C206.285 142.335 206.284 141.718 206.284 140.566L229.918 127.868C233.445 125.831 239.164 125.831 242.691 127.868L266.324 140.475C266.324 141.594 266.331 142.346 266.324 143.685C266.318 145.015 265.437 146.343 263.679 147.358L242.69 159.475C239.163 161.511 233.444 161.511 229.917 159.475L208.929 147.358Z" fill="url(#paint22_linear)"/>
</g>
<path d="M200.563 145.46C198.26 144.131 197.109 142.387 197.111 140.645C197.112 138.905 197.111 138.099 197.111 136.596L227.953 120.025C232.556 117.368 240.018 117.368 244.621 120.025L275.463 136.478C275.463 137.938 275.471 138.919 275.463 140.666C275.455 142.402 274.304 144.136 272.01 145.46L244.62 161.272C240.018 163.929 232.555 163.929 227.952 161.272L200.563 145.46Z" fill="url(#paint23_linear)"/>
<path d="M200.563 141.487C195.96 138.83 195.96 134.522 200.563 131.864L227.953 116.053C232.555 113.395 240.018 113.395 244.621 116.053L272.01 131.864C276.613 134.522 276.613 138.83 272.01 141.487L244.621 157.299C240.018 159.956 232.555 159.956 227.953 157.299L200.563 141.487Z" fill="url(#paint24_radial)"/>
<path d="M229.409 125.748L254.044 139.97L257.079 132.427L240.881 123.076L229.409 125.748ZM244.919 139.025L240.652 144.045L221.324 132.887L229.307 130.012L244.919 139.025ZM229.165 147.465L233.101 144.009L220.765 136.887L215.205 139.378L229.165 147.465Z" fill="#5C4C9F"/>
</g>
<g opacity="0.5">
<g filter="url(#filter8_d)">
<path opacity="0.5" d="M406.039 147.358C404.275 146.339 403.393 145.004 403.394 143.668C403.395 142.335 403.394 141.718 403.394 140.566L427.028 127.868C430.556 125.831 436.274 125.831 439.801 127.868L463.435 140.475C463.435 141.594 463.441 142.346 463.435 143.685C463.429 145.015 462.547 146.343 460.79 147.358L439.801 159.475C436.274 161.511 430.555 161.511 427.028 159.475L406.039 147.358Z" fill="url(#paint25_linear)"/>
</g>
<path d="M397.673 145.46C395.37 144.131 394.219 142.387 394.221 140.645C394.223 138.905 394.221 138.099 394.221 136.596L425.063 120.025C429.666 117.368 437.129 117.368 441.732 120.025L472.573 136.478C472.573 137.938 472.581 138.919 472.573 140.666C472.565 142.402 471.414 144.136 469.121 145.46L441.731 161.272C437.128 163.929 429.665 163.929 425.062 161.272L397.673 145.46Z" fill="url(#paint26_linear)"/>
<path d="M397.674 141.487C393.071 138.83 393.071 134.522 397.674 131.864L425.063 116.053C429.666 113.395 437.129 113.395 441.731 116.053L469.121 131.864C473.723 134.522 473.723 138.83 469.121 141.487L441.731 157.299C437.129 159.956 429.666 159.956 425.063 157.299L397.674 141.487Z" fill="url(#paint27_radial)"/>
<path d="M435.621 146.096L421.337 144.239C420.219 144.094 419.376 143.607 419.124 142.961L415.906 134.715C415.655 134.07 416.033 133.364 416.899 132.864L427.966 126.476C428.831 125.976 430.053 125.757 431.171 125.903L445.455 127.76C446.573 127.905 447.417 128.393 447.669 129.038L450.886 137.284C451.138 137.929 450.76 138.635 449.894 139.135L438.827 145.523C437.961 146.023 436.739 146.242 435.621 146.096Z" fill="url(#paint28_linear)"/>
<mask id="mask0" mask-type="alpha" maskUnits="userSpaceOnUse" x="415" y="125" width="36" height="22">
<path d="M435.621 146.096L421.337 144.239C420.219 144.094 419.376 143.607 419.124 142.961L415.906 134.715C415.655 134.07 416.033 133.364 416.899 132.864L427.966 126.476C428.831 125.976 430.053 125.757 431.171 125.903L445.455 127.76C446.573 127.905 447.417 128.393 447.669 129.038L450.886 137.284C451.138 137.929 450.76 138.635 449.894 139.135L438.827 145.523C437.961 146.023 436.739 146.242 435.621 146.096Z" fill="url(#paint29_linear)"/>
</mask>
<g mask="url(#mask0)">
<path opacity="0.2" d="M449.365 131.776L433.797 132.185L429.437 133.713L427.357 136.147L429.033 138.518L433.23 139.813L449.739 139.38L451.496 138.28L449.365 131.776Z" fill="black"/>
<path d="M428.932 133.422C426.232 134.981 426.042 137.398 428.507 138.822C430.973 140.245 435.16 140.135 437.861 138.577C440.561 137.018 440.751 134.6 438.286 133.177C435.82 131.753 431.632 131.863 428.932 133.422ZM436.784 137.955C434.735 139.138 431.558 139.221 429.687 138.141C427.816 137.061 427.96 135.227 430.009 134.044C432.058 132.861 435.235 132.778 437.106 133.858C438.977 134.938 438.832 136.772 436.784 137.955Z" fill="white"/>
<path d="M430.903 137.24L432.291 138.041C432.868 138.115 433.482 138.102 434.076 138.005L431.827 136.707L430.903 137.24Z" fill="white"/>
<path d="M431.564 135.507L435.3 137.664C435.483 137.589 435.66 137.505 435.825 137.41C435.976 137.323 436.108 137.23 436.23 137.134L432.488 134.974L431.564 135.507Z" fill="white"/>
<path d="M435.227 135.41L436.875 136.361C437.036 136.008 437.045 135.644 436.894 135.305L436.151 134.876L435.227 135.41Z" fill="white"/>
<path d="M439.664 135.556L439.621 136.115C439.613 136.214 439.746 136.291 439.917 136.286L443.592 136.189C443.762 136.185 443.908 136.101 443.916 136.002L443.96 135.443C443.967 135.345 443.834 135.268 443.664 135.272L439.988 135.369C439.818 135.373 439.672 135.457 439.664 135.556Z" fill="white"/>
</g>
</g>
<g opacity="0.5">
<g filter="url(#filter9_d)">
<path opacity="0.5" d="M110.374 90.3282C108.609 89.3093 107.727 87.9737 107.728 86.6382C107.73 85.3049 107.728 84.6876 107.728 83.5355L131.363 70.8375C134.89 68.8012 140.609 68.8012 144.136 70.8375L167.769 83.4449C167.769 84.5642 167.775 85.3157 167.769 86.6548C167.763 87.9845 166.881 89.3132 165.124 90.3278L144.135 102.445C140.608 104.481 134.889 104.481 131.362 102.445L110.374 90.3282Z" fill="url(#paint30_linear)"/>
</g>
<path d="M102.008 88.43C99.7038 87.1004 98.5538 85.3574 98.5548 83.6147C98.5568 81.8747 98.5548 81.0692 98.5548 79.5657L129.398 62.9951C134.001 60.3378 141.463 60.3378 146.066 62.9951L176.907 79.4474C176.907 80.9081 176.915 81.8889 176.907 83.6363C176.899 85.3716 175.749 87.1055 173.455 88.4295L146.065 104.242C141.462 106.899 134 106.899 129.397 104.242L102.008 88.43Z" fill="url(#paint31_linear)"/>
<path d="M102.008 84.457C97.4048 81.7998 97.4048 77.4916 102.008 74.8343L129.397 59.0225C134 56.3653 141.463 56.3653 146.066 59.0225L173.455 74.8343C178.058 77.4916 178.058 81.7998 173.455 84.457L146.066 100.269C141.463 102.926 134 102.926 129.397 100.269L102.008 84.457Z" fill="url(#paint32_radial)"/>
<path d="M128.726 77.1065C128.777 76.0176 129.549 74.9164 131.032 74.0603C133.005 72.921 135.732 72.5067 138.149 72.8388C138.623 72.187 139.322 71.5821 140.254 71.0436C143.819 68.986 149.366 68.8602 152.642 70.7516C155.918 72.643 155.7 75.8453 152.136 77.9029C151.706 78.1515 151.231 78.3748 150.748 78.5654C151.245 79.7915 150.61 81.1923 148.84 82.2142C148.098 82.6423 147.252 82.9545 146.346 83.1496C147.291 84.6341 146.611 86.4513 144.387 87.7356C142.066 89.0751 138.75 89.4389 136.129 88.7958C135.859 89.027 135.557 89.2392 135.198 89.4464C132.436 91.0413 128.147 91.1341 125.602 89.6651C123.899 88.6816 123.418 87.2442 124.116 85.9209C123.161 85.7284 122.283 85.4153 121.53 84.9803C118.58 83.2913 118.818 80.418 122.023 78.5675C123.913 77.4766 126.406 76.9828 128.726 77.1065Z" fill="#139CD8"/>
<path d="M128.447 86.3082C128.467 86.3473 128.513 86.3328 128.524 86.3391C128.617 86.3235 128.697 86.3148 128.79 86.2992C129.254 86.208 129.574 86.0612 129.873 85.8886C130.483 85.5364 130.571 85.1452 130.09 84.8678L130.079 84.8615C129.631 84.6031 129.048 84.7634 128.521 84.9288L128.451 84.9438C128.065 85.066 127.725 85.1737 127.54 85.0665L127.529 85.0602C127.376 84.972 127.411 84.8129 127.651 84.6748C127.914 84.5229 128.301 84.3875 128.614 84.3331C128.614 84.3331 128.706 84.3175 128.676 84.2722C128.655 84.2464 128.511 84.0392 128.489 84.0266C128.469 84.0008 128.423 84.002 128.4 84.0026C128.042 84.0582 127.631 84.1941 127.296 84.3875L127.237 84.422C126.674 84.7465 126.586 85.1509 127.033 85.4094L127.044 85.4157C127.514 85.6868 128.097 85.5265 128.602 85.3485L128.684 85.3265C129.07 85.2044 129.387 85.0972 129.573 85.2044L129.584 85.2107C129.758 85.3115 129.722 85.4839 129.459 85.6358C129.351 85.6979 129.028 85.8843 128.462 85.9717C128.392 85.9867 128.346 85.9879 128.312 85.9954C128.289 85.996 128.23 86.0173 128.25 86.0563L128.447 86.3082Z" fill="white"/>
<path d="M137.429 81.1227C137.449 81.1618 137.496 81.1473 137.507 81.1536C137.599 81.138 137.68 81.1293 137.772 81.1137C138.236 81.0225 138.556 80.8757 138.855 80.703C139.465 80.3509 139.553 79.9597 139.072 79.6823L139.061 79.676C138.614 79.4175 138.03 79.5779 137.503 79.7433L137.445 79.7646C137.058 79.8868 136.719 79.9945 136.533 79.8874L136.522 79.881C136.369 79.7928 136.405 79.6337 136.644 79.4956C136.907 79.3437 137.294 79.2083 137.607 79.154C137.607 79.154 137.699 79.1383 137.669 79.093C137.648 79.0672 137.504 78.86 137.482 78.8474C137.462 78.8216 137.416 78.8228 137.393 78.8234C137.035 78.879 136.624 79.0149 136.29 79.2083L136.23 79.2428C135.668 79.5673 135.579 79.9717 136.026 80.2302L136.037 80.2365C136.507 80.5076 137.09 80.3473 137.595 80.1693L137.677 80.1473C138.063 80.0252 138.38 79.918 138.566 80.0252L138.577 80.0315C138.751 80.1323 138.715 80.3047 138.452 80.4566C138.344 80.5187 138.021 80.7051 137.455 80.7925C137.385 80.8075 137.34 80.8087 137.305 80.8162C137.282 80.8168 137.223 80.8381 137.243 80.8772L137.429 81.1227Z" fill="white"/>
<path fill-rule="evenodd" clip-rule="evenodd" d="M142.006 76.3495C142.211 76.3573 142.437 76.391 142.637 76.4516C142.838 76.5122 143.026 76.593 143.211 76.7002C143.386 76.8011 143.537 76.9157 143.642 77.0316C143.747 77.1475 143.817 77.2709 143.819 77.3961C143.831 77.5276 143.787 77.654 143.697 77.7815C143.607 77.9091 143.449 78.0385 143.245 78.1559C143.042 78.2733 142.818 78.3648 142.597 78.4168C142.376 78.4687 142.146 78.4879 141.929 78.487C141.724 78.4792 141.499 78.4456 141.298 78.3849C141.097 78.3243 140.898 78.2372 140.724 78.1363C140.549 78.0355 140.398 77.9208 140.293 77.8049C140.188 77.689 140.118 77.5656 140.116 77.4405C140.115 77.3153 140.148 77.1826 140.238 77.055C140.328 76.9274 140.487 76.798 140.69 76.6806C140.893 76.5633 141.117 76.4717 141.338 76.4198C141.559 76.3678 141.789 76.3486 142.006 76.3495ZM143.092 77.5008C143.047 77.3504 142.899 77.1961 142.626 77.0385C142.353 76.8808 142.075 76.7893 141.826 76.7695C141.576 76.7496 141.332 76.8022 141.105 76.9334C140.866 77.0715 140.776 77.199 140.821 77.3494C140.866 77.4999 141.014 77.6542 141.287 77.8118C141.56 77.9694 141.827 78.0547 142.088 78.0808C142.337 78.1006 142.581 78.0481 142.808 77.9169C143.036 77.7857 143.138 77.6512 143.092 77.5008Z" fill="white"/>
<path d="M148.124 74.7719C148.068 74.7536 148.032 74.7875 148.032 74.7875C147.982 74.8416 147.931 74.9088 147.858 74.9635C147.785 75.0181 147.7 75.0796 147.605 75.1349C147.353 75.2799 147.097 75.3525 146.822 75.3597C146.547 75.3669 146.257 75.2823 145.962 75.112C145.7 74.9607 145.575 74.8058 145.542 74.6485C145.509 74.4912 145.624 74.3366 145.887 74.1847C146.102 74.0604 146.28 73.9833 146.491 73.9118C146.491 73.9118 146.537 73.8974 146.518 73.8584C146.456 73.7677 146.405 73.6966 146.333 73.5996C146.312 73.5738 146.254 73.5819 146.242 73.5888C146.149 73.6176 145.949 73.6821 145.819 73.7449C145.7 73.8007 145.558 73.8704 145.414 73.9532C145.199 74.0775 145.04 74.2069 144.938 74.3414C144.837 74.4759 144.792 74.6023 144.793 74.7407C144.794 74.8659 144.853 74.9961 144.946 75.1189C145.039 75.2417 145.19 75.3564 145.364 75.4573C145.758 75.6842 146.183 75.7917 146.628 75.7998C147.084 75.801 147.539 75.6771 147.994 75.4147C148.257 75.2628 148.476 75.0856 148.603 74.9241C148.603 74.9241 148.617 74.8908 148.572 74.8788L148.124 74.7719Z" fill="white"/>
<path fill-rule="evenodd" clip-rule="evenodd" d="M148.769 72.3824C148.906 72.3788 149.167 72.4049 149.367 72.4655C149.836 72.5982 150.093 72.8156 150.068 72.8426C150.112 72.8678 150.064 72.8954 150.064 72.8954L148.33 73.8966C148.582 74.0284 148.806 74.0885 149.058 74.0819C149.298 74.069 149.578 73.9957 149.841 73.8438C150.235 73.6167 150.349 73.4726 150.425 73.3778C150.429 73.3717 150.434 73.3659 150.439 73.3602C150.439 73.3602 150.465 73.3199 150.52 73.3383L150.935 73.4394C151.013 73.4571 151.012 73.4704 150.999 73.4905C150.946 73.5841 150.781 73.7928 150.279 74.0828C150.039 74.2341 149.803 74.3325 149.558 74.3983C149.325 74.4571 149.094 74.4895 148.865 74.4955C148.636 74.5016 148.411 74.4679 148.21 74.4073C147.997 74.3535 147.809 74.2728 147.624 74.1656C147.449 74.0647 147.298 73.95 147.193 73.8342C147.089 73.7051 147.03 73.588 147.017 73.4565C147.004 73.3382 147.049 73.1986 147.139 73.071C147.229 72.9434 147.4 72.8072 147.615 72.6829C147.806 72.5724 148.007 72.4946 148.205 72.4433C148.368 72.3995 148.552 72.3815 148.769 72.3824ZM147.746 73.3516C147.773 73.4497 147.845 73.5467 147.974 73.6488L149.218 72.9307C149.064 72.8556 148.897 72.8007 148.727 72.7854C148.477 72.7656 148.234 72.8049 148.007 72.9361C147.78 73.0673 147.701 73.2012 147.746 73.3516Z" fill="white"/>
<path fill-rule="evenodd" clip-rule="evenodd" d="M134.883 80.3986C135.02 80.395 135.281 80.4211 135.481 80.4818C135.95 80.6145 136.207 80.8318 136.182 80.8588C136.226 80.8841 136.178 80.9117 136.178 80.9117L134.444 81.9129C134.696 82.0447 134.92 82.1047 135.172 82.0981C135.412 82.0852 135.692 82.0119 135.955 81.86C136.349 81.633 136.463 81.4888 136.539 81.3941C136.543 81.388 136.548 81.3821 136.553 81.3764C136.553 81.3764 136.579 81.3362 136.634 81.3545L137.049 81.4557C137.127 81.4734 137.126 81.4866 137.113 81.5067C137.06 81.6004 136.895 81.809 136.393 82.099C136.153 82.2503 135.917 82.3488 135.672 82.4145C135.439 82.4734 135.208 82.5058 134.979 82.5118C134.75 82.5178 134.525 82.4842 134.324 82.4235C134.111 82.3698 133.923 82.289 133.738 82.1818C133.563 82.081 133.412 81.9663 133.307 81.8504C133.203 81.7213 133.144 81.6042 133.131 81.4727C133.118 81.3545 133.163 81.2149 133.253 81.0873C133.343 80.9597 133.514 80.8234 133.729 80.6991C133.92 80.5886 134.121 80.5109 134.319 80.4595C134.482 80.4157 134.666 80.3977 134.883 80.3986ZM133.86 81.3678C133.887 81.466 133.959 81.5629 134.088 81.665L135.332 80.9469C135.178 80.8719 135.011 80.8169 134.841 80.8016C134.591 80.7818 134.348 80.8211 134.121 80.9523C133.894 81.0835 133.815 81.2174 133.86 81.3678Z" fill="white"/>
<path fill-rule="evenodd" clip-rule="evenodd" d="M130.841 83.4455C130.881 83.425 130.917 83.4068 130.948 83.3887C130.948 83.3887 131.103 83.3121 131.245 83.2424L131.18 83.2046C130.961 83.0785 130.815 83.0495 130.654 83.0669C130.493 83.0843 130.317 83.1482 130.125 83.2586C130.125 83.2586 129.707 83.5003 129.536 83.7882C129.535 83.8014 129.523 83.8084 129.523 83.8084C129.523 83.8084 129.497 83.8485 129.441 83.8302L129.016 83.7228C128.948 83.7113 128.962 83.678 128.962 83.678C129.008 83.5252 129.325 83.2665 129.325 83.2665C129.424 83.1717 129.617 83.0479 129.748 82.9719C130.095 82.7717 130.447 82.657 130.768 82.6354C131.089 82.6138 131.425 82.6974 131.742 82.8802L133.194 83.7186C133.194 83.7186 133.25 83.7369 133.213 83.7708C133.213 83.7708 133.175 83.8181 133.126 83.8589C133.117 83.8666 133.104 83.878 133.087 83.8924C133.014 83.9544 132.878 84.0697 132.76 84.1584C132.626 84.274 132.457 84.384 132.278 84.4875C132.11 84.5842 131.944 84.6675 131.78 84.7246C131.603 84.7885 131.44 84.8324 131.279 84.8498C131.118 84.8672 130.946 84.8651 130.8 84.836C130.642 84.8137 130.498 84.7582 130.356 84.6762C130.225 84.6006 130.141 84.5106 130.092 84.413C130.042 84.3155 130.038 84.2166 130.081 84.1166C130.111 84.0236 130.188 83.9161 130.287 83.8212C130.397 83.7195 130.519 83.624 130.662 83.5411C130.73 83.5022 130.789 83.472 130.841 83.4455ZM131.213 84.4265C131.251 84.4306 131.277 84.4334 131.381 84.4253C131.381 84.4253 131.645 84.3986 131.97 84.1857C132.211 84.0344 132.382 83.885 132.382 83.885L131.661 83.4689C131.661 83.4689 131.413 83.5742 131.162 83.7192C130.792 83.92 130.769 84.0723 130.769 84.0723C130.727 84.1723 130.777 84.2566 130.919 84.3385C131.018 84.3953 131.107 84.4193 131.187 84.4238C131.197 84.4247 131.205 84.4256 131.213 84.4265Z" fill="white"/>
<path d="M144.123 74.8374C144.102 74.8115 144.056 74.8127 144.044 74.8196C144.01 74.8272 143.821 74.898 143.714 74.9601C143.488 75.0781 143.401 75.1661 143.337 75.2534C143.273 75.3408 143.23 75.454 143.246 75.5326L143.05 75.4192C143.028 75.4065 142.982 75.4077 142.958 75.4216L142.492 75.6908C142.468 75.7046 142.466 75.7311 142.488 75.7437L144.857 77.1118C144.879 77.1244 144.925 77.1232 144.949 77.1094L145.403 76.847C145.427 76.8332 145.429 76.8068 145.408 76.7941L144.228 76.1133C144.064 76.0187 143.935 75.9166 143.873 75.8392C143.81 75.7617 143.782 75.69 143.799 75.617C143.804 75.551 143.832 75.4843 143.894 75.4234C143.956 75.3624 144.029 75.3078 144.089 75.2733C144.184 75.218 144.302 75.1754 144.302 75.1754C144.338 75.1547 144.339 75.1415 144.318 75.1157C144.277 75.0508 144.143 74.8764 144.123 74.8374Z" fill="white"/>
<path d="M138.749 76.6788C138.678 76.707 138.62 76.7283 138.549 76.7565C138.466 76.7917 138.384 76.8268 138.288 76.882C137.977 77.0615 137.802 77.2507 137.799 77.4419C137.795 77.6331 137.916 77.8409 138.173 78.0582L138.258 78.1351L137.863 78.3629C137.863 78.3629 137.815 78.3906 137.847 78.4227L138.115 78.6463C138.148 78.6653 138.181 78.671 138.229 78.6433L138.612 78.4224L140.194 79.7914C140.322 79.9067 140.429 79.9961 140.479 80.0805C140.542 80.1579 140.582 80.2228 140.589 80.2819C140.596 80.3411 140.593 80.3807 140.543 80.4347C140.505 80.4819 140.433 80.5233 140.361 80.5647C140.326 80.5854 140.255 80.6136 140.207 80.6413C140.16 80.6557 140.136 80.6695 140.078 80.6776C140.078 80.6776 140.02 80.6989 140.041 80.7247C140.061 80.7505 140.216 80.964 140.226 80.9835C140.246 81.0093 140.28 81.015 140.315 81.0075C140.385 80.9925 140.421 80.9718 140.514 80.943C140.632 80.9004 140.716 80.852 140.787 80.8106C140.943 80.7208 141.076 80.6185 141.152 80.5242C141.228 80.4299 141.27 80.33 141.268 80.218C141.265 80.106 141.228 80.0015 141.146 79.885C141.063 79.7686 140.926 79.6338 140.766 79.4864L139.14 78.0922L139.714 77.7607C139.714 77.7607 139.762 77.7331 139.73 77.701L139.463 77.4773C139.43 77.4584 139.396 77.4527 139.348 77.4803L138.798 77.798C138.787 77.7917 138.636 77.677 138.533 77.5347C138.481 77.4767 138.486 77.4107 138.489 77.3711C138.493 77.3182 138.519 77.278 138.545 77.2378C138.594 77.1969 138.643 77.1561 138.715 77.1147C138.763 77.0871 138.833 77.0588 138.869 77.0381C138.928 77.0168 138.952 77.003 138.975 77.0024C139.046 76.9742 139.035 76.9679 139.025 76.9484L138.829 76.6833C138.819 76.6638 138.772 76.6782 138.749 76.6788Z" fill="white"/>
<path d="M134.637 83.0119C134.659 83.0245 134.648 83.0558 134.616 83.0746L133.998 83.4311C133.966 83.4499 133.912 83.456 133.89 83.4434L130.504 81.489C130.483 81.4764 130.493 81.445 130.526 81.4263L131.127 81.0791C131.159 81.0604 131.214 81.0542 131.236 81.0668L134.621 83.0212L134.637 83.0119Z" fill="white"/>
</g>
<g opacity="0.5">
<g filter="url(#filter10_d)">
<path opacity="0.5" d="M307.484 90.3282C305.719 89.3093 304.838 87.9737 304.839 86.6382C304.84 85.3049 304.839 84.6876 304.839 83.5355L328.473 70.8375C332 68.8012 337.719 68.8012 341.246 70.8375L364.88 83.4449C364.88 84.5642 364.886 85.3157 364.88 86.6548C364.874 87.9845 363.992 89.3132 362.234 90.3278L341.245 102.445C337.718 104.481 332 104.481 328.473 102.445L307.484 90.3282Z" fill="url(#paint33_linear)"/>
</g>
<path d="M299.118 88.43C296.815 87.1004 295.664 85.3574 295.666 83.6147C295.668 81.8747 295.666 81.0692 295.666 79.5657L326.508 62.9951C331.111 60.3378 338.574 60.3378 343.177 62.9951L374.018 79.4474C374.018 80.9081 374.026 81.8889 374.018 83.6363C374.01 85.3716 372.859 87.1055 370.566 88.4295L343.176 104.242C338.573 106.899 331.11 106.899 326.507 104.242L299.118 88.43Z" fill="url(#paint34_linear)"/>
<path d="M299.119 84.457C294.516 81.7998 294.516 77.4916 299.119 74.8343L326.508 59.0225C331.111 56.3653 338.573 56.3653 343.176 59.0225L370.565 74.8343C375.168 77.4916 375.168 81.7998 370.565 84.457L343.176 100.269C338.573 102.926 331.111 102.926 326.508 100.269L299.119 84.457Z" fill="url(#paint35_radial)"/>
<path d="M332.642 67.9924L312.406 79.6744C310.544 80.7498 310.412 82.4172 312.113 83.3991L330.59 94.0658C332.291 95.0477 335.179 94.9719 337.042 93.8965L357.278 82.2145C359.14 81.1391 359.272 79.4717 357.571 78.4898L339.094 67.8231C337.394 66.8418 334.505 66.917 332.642 67.9924ZM330.638 74.364C330.184 74.102 330.221 73.6569 330.716 73.3707C331.213 73.0838 331.983 73.0636 332.437 73.3256L343.408 79.6592C343.862 79.9211 343.826 80.3662 343.33 80.6524C342.833 80.9393 342.063 80.9595 341.609 80.6976L330.638 74.364ZM325.727 76.7206C325.273 76.4586 325.309 76.0135 325.805 75.7273C326.301 75.4411 327.072 75.4202 327.525 75.6822L339.433 82.5562C339.886 82.8181 339.85 83.2633 339.354 83.5495C338.859 83.8357 338.088 83.8565 337.634 83.5946L325.727 76.7206ZM321.645 79.556C321.191 79.294 321.226 78.8496 321.723 78.5627C322.22 78.2758 322.988 78.2563 323.442 78.5182L334.413 84.8518C334.867 85.1138 334.832 85.5582 334.336 85.8445C333.839 86.1313 333.069 86.1515 332.616 85.8896L321.645 79.556ZM318.79 83.1001C318.336 82.8382 318.371 82.3937 318.867 82.1075C319.364 81.8206 320.134 81.8004 320.588 82.0624L327.973 86.3261C328.427 86.588 328.391 87.0331 327.895 87.3193C327.398 87.6062 326.629 87.6257 326.176 87.3638L318.79 83.1001ZM350.788 79.0908C350.758 79.2334 349.979 82.6309 343.87 86.1575C337.761 89.6842 331.878 90.134 331.629 90.1511C330.958 90.1984 330.394 89.9251 330.373 89.5391C330.352 89.1556 330.877 88.8048 331.549 88.7562C331.642 88.7488 336.844 88.3174 342.226 85.21C347.677 82.0637 348.361 79.0776 348.369 79.0483C348.45 78.6602 349.059 78.3549 349.724 78.3678C350.396 78.3781 350.871 78.7027 350.788 79.0908ZM345.963 75.942C346.416 76.2039 346.38 76.649 345.885 76.9353C345.388 77.2221 344.619 77.2417 344.165 76.9797L336.778 72.7155C336.325 72.4535 336.36 72.009 336.856 71.7228C337.352 71.436 338.122 71.4158 338.576 71.6777L345.963 75.942Z" fill="#286EFA"/>
</g>
<g opacity="0.25">
<g filter="url(#filter11_d)">
<path opacity="0.25" d="M208.929 33.2985C207.164 32.2796 206.282 30.9441 206.284 29.6087C206.285 28.2753 206.284 27.658 206.284 26.5059L229.918 13.8079C233.445 11.7717 239.164 11.7717 242.691 13.8079L266.324 26.4153C266.324 27.5346 266.331 28.2861 266.324 29.6251C266.318 30.9549 265.437 32.2836 263.679 33.2981L242.69 45.4151C239.163 47.4514 233.444 47.4513 229.917 45.4151L208.929 33.2985Z" fill="url(#paint36_linear)"/>
</g>
<path d="M200.563 31.4004C198.26 30.0707 197.109 28.3277 197.111 26.585C197.112 24.845 197.111 24.0395 197.111 22.5361L227.953 5.96542C232.556 3.3082 240.018 3.3082 244.621 5.96542L275.463 22.4178C275.463 23.8784 275.471 24.8592 275.463 26.6066C275.455 28.3419 274.304 30.0758 272.01 31.3998L244.62 47.2121C240.018 49.8694 232.555 49.8694 227.952 47.2122L200.563 31.4004Z" fill="url(#paint37_linear)"/>
<path d="M200.563 27.4273C195.96 24.7701 195.96 20.4619 200.563 17.8047L227.953 1.99292C232.555 -0.664301 240.018 -0.664311 244.621 1.99292L272.01 17.8047C276.613 20.4619 276.613 24.7701 272.01 27.4273L244.621 43.2391C240.018 45.8964 232.555 45.8964 227.953 43.2391L200.563 27.4273Z" fill="url(#paint38_radial)"/>
<path d="M220.39 19.5616L223.67 18.3073L224.565 17.9384L225.332 16.9055L226.269 16.1677L227.888 15.3807L228.91 14.643L229.762 14.0035L231.423 12.8969L232.361 12.3558L234.874 11.5934L236.237 11.2983L238.325 11.2245L239.603 11.2737L240.838 11.5442L241.69 12.0361L242.244 12.3558L243.053 12.9706L245.098 14.7905L246.419 16.5858L247.313 17.9876L247.569 18.7746L248.037 19.1927C248.179 19.1435 248.489 19.0303 248.591 18.9713C248.693 18.9123 248.889 18.6352 248.975 18.5041L249.656 18.1106L250.679 17.6679L251.105 17.6187L251.829 17.8892L252.127 18.0614L252.297 18.6024L252.255 19.0697L251.701 19.9796L250.764 20.9142L249.315 21.7503L249.528 22.07L250.636 22.6603L251.786 23.5702L252.851 24.5785L253.49 25.2917L253.49 26.1771L253.235 27.0132L252.596 27.7756L251.829 28.2183L250.125 28.8085L249.145 28.8823L247.441 28.5872L246.12 28.1691L245.098 27.5789L242.925 26.5214L242.457 26.3492L242.031 27.0378L241.477 27.5543L240.327 27.9232L238.964 28.3658L237.643 28.4888L237.558 28.6856L237.6 29.1528L237.26 29.4971L236.365 29.866L235.343 30.2103L231.849 29.7676L227.93 28.7839L222.776 27.0378L220.688 26.1771L218.942 24.8245L218.132 23.9637L217.536 22.5373L218.942 20.3977L220.39 19.5616Z" fill="white"/>
<path d="M230.632 14.6393C231.697 13.69 233.188 12.8686 234.994 12.3964C236.238 12.0718 237.643 11.9488 239.007 12.0373C239.654 12.0767 240.174 12.3374 240.634 12.5833C241.699 13.1883 242.534 13.9162 243.284 14.654C244.647 16.0411 245.661 17.5413 246.351 19.0808C246.411 19.2333 246.47 19.3857 246.504 19.5431C246.453 19.5234 246.342 19.4792 246.283 19.4546C246.078 19.1988 245.959 18.9135 245.686 18.6775C244.962 17.9741 243.752 17.5216 242.696 17.01C241.682 16.5329 241.103 15.8345 240.174 15.3082C239.756 15.0278 239.152 14.8852 238.581 14.7524C236.561 14.3048 234.321 14.1622 232.182 14.4032C231.654 14.472 231.151 14.5852 230.632 14.6393Z" fill="#326690"/>
<path d="M226.985 16.892C228.442 15.805 230.657 15.0574 233.034 14.8951C235.002 14.7623 237.039 14.9443 238.819 15.4312C238.018 15.864 237.107 16.351 237.013 17.0248C236.919 17.6298 237.669 18.1413 238.487 18.466C240.421 19.2382 242.773 19.4841 244.962 19.9219C245.49 20.0104 246.053 20.0399 246.598 20.0793C246.453 20.3301 246.274 20.5908 246.402 20.8613C246.572 21.2942 247.237 21.5598 247.689 21.8992C248.967 22.8238 250.245 23.7485 251.429 24.7077C252 25.1651 252.443 25.7553 252.136 26.3259C251.812 26.9063 251.25 27.467 250.398 27.831C249.563 28.1654 248.464 28.0425 247.62 27.7916C246.939 27.5654 246.359 27.2506 245.763 26.9555C244.357 26.2226 243.011 25.4553 241.716 24.6585C241.222 24.3437 240.412 24.1814 239.688 24.3043C239.339 24.3584 239.049 24.506 238.785 24.6388C238.001 23.96 237.754 23.119 236.979 22.4353C236.025 21.5794 234.619 20.9351 233.145 20.399C232.412 20.1334 231.432 20.0891 230.674 20.3498C229.498 20.7531 228.928 21.5057 228.484 22.2139C227.232 21.3729 226.21 20.3596 225.937 19.2382C225.707 18.4168 226.107 17.556 226.985 16.892Z" fill="#326690"/>
<path d="M219.982 21.063C221.183 20.035 223.015 19.3316 224.872 18.7611C224.932 19.5235 225.264 20.276 225.86 20.9548C226.661 21.8696 227.752 22.7058 229.098 23.3747C230.027 23.8518 230.896 24.3732 231.645 24.9536C232.634 25.7012 234.27 26.1144 235.88 26.0701C235.974 26.7931 236.008 27.5211 236.144 28.2392C236.187 28.5491 236.204 28.9426 235.692 29.1393C235.053 29.341 234.287 29.2623 233.614 29.1885C231.688 28.9327 229.907 28.4163 228.161 27.89C226.124 27.2457 224.148 26.5472 222.299 25.7356C220.953 25.0864 219.692 24.2797 219.223 23.2813C218.874 22.5189 219.232 21.7024 219.982 21.063Z" fill="#326690"/>
<path d="M237.976 17.0297C238.129 16.4887 238.939 16.1296 239.603 15.7853C240.455 16.3067 241.034 16.9559 241.997 17.4134C243.164 17.9987 244.647 18.4905 245.167 19.3808C243.105 18.9873 240.915 18.7463 239.075 18.0479C238.521 17.8167 237.891 17.4724 237.976 17.0297ZM238.385 17.0297C238.359 17.2215 238.777 17.2363 238.998 17.1871C239.595 17.0986 239.808 16.6215 239.39 16.3608C238.887 16.4641 238.47 16.7248 238.385 17.0297Z" fill="#326690"/>
<path d="M229.268 22.7058C229.515 22.0516 229.967 21.3876 230.845 20.94C231.296 20.699 231.995 20.6498 232.523 20.8367C234.397 21.486 236.195 22.3861 236.894 23.6256C237.183 24.0879 237.55 24.5355 237.959 24.9683C236.766 25.6668 234.73 25.6717 233.375 25.1356C232.583 24.8454 232.123 24.3634 231.501 23.9748C230.802 23.5124 230.018 23.119 229.268 22.7058ZM230.862 21.4024C230.793 21.4811 230.759 21.5893 230.904 21.6532C231.415 21.8598 232.259 21.6778 232.353 21.3089C232.421 21.1614 232.344 20.9203 232.003 20.94C231.535 20.9646 231.1 21.1663 230.862 21.4024Z" fill="#326690"/>
<path d="M247.322 20.6252C247.373 20.4481 247.501 20.2268 247.85 20.1924C249.188 19.9514 249.98 19.2382 250.79 18.6332C250.773 19.2824 250.245 19.8825 249.554 20.3793C249.103 20.7088 248.583 21.0285 247.919 21.2154C247.654 21.0531 247.305 20.8711 247.322 20.6252Z" fill="#326690"/>
<path d="M239.578 26.3259C239.808 25.8783 239.407 25.4209 239.578 24.9684C240.012 24.629 241.154 24.8552 241.12 25.2881C241.384 26.3161 240.072 27.2998 238.427 27.6096C238.717 27.1571 239.365 26.803 239.578 26.3259Z" fill="#326690"/>
<path d="M228.374 14.6835C229.447 13.6211 230.819 12.6423 232.591 11.9438C234.193 11.3044 236.11 10.9257 238.061 10.9208C238.93 10.9208 239.833 10.9404 240.617 11.1962C241.955 11.6339 242.951 12.3373 243.82 13.0456C245.891 14.772 247.297 16.7444 248.234 18.761C248.813 18.4265 249.188 18.0035 249.716 17.6494C250.245 17.3051 251.182 17.1575 251.889 17.4084C252.664 17.6592 252.869 18.22 252.801 18.6921C252.673 19.9267 251.437 21.0236 249.87 21.8302C251.31 22.7598 252.869 23.6993 253.636 24.8896C253.976 25.4208 254.087 26.0061 253.857 26.5619C253.644 27.098 253.141 27.5751 252.622 28.0227C252.034 28.5097 251.182 28.9228 250.159 29.0409C249.231 29.1638 248.259 29.0163 247.424 28.7704C245.61 28.3031 244.229 27.4472 242.781 26.6799C242.176 27.4915 241.043 28.1457 239.671 28.5343C239.186 28.6671 238.657 28.7261 238.121 28.731C238.035 29.2819 237.533 29.8278 236.681 30.1033C235.599 30.4623 234.278 30.3984 233.111 30.2459C231.04 29.9557 229.106 29.4098 227.232 28.8294C225.094 28.1457 222.998 27.4079 221.055 26.5422C219.411 25.7307 217.911 24.7076 217.4 23.4681C216.974 22.4549 217.4 21.3629 218.405 20.5071C219.803 19.2873 221.967 18.4413 224.182 17.7724C224.48 17.3149 224.761 16.8477 225.255 16.4443C226.065 15.741 227.206 15.1901 228.374 14.6835ZM229.047 15.0819C228.945 15.1704 228.757 15.2098 228.604 15.2786C226.874 15.9426 225.4 16.9214 224.983 18.1265C222.946 18.6823 221.004 19.4201 219.581 20.4382C218.533 21.1908 217.894 22.1991 218.218 23.173C218.618 24.3977 220.109 25.3962 221.72 26.1684C223.952 27.1423 226.372 27.9785 228.859 28.7162C230.436 29.1638 232.063 29.5918 233.792 29.7737C234.653 29.8574 235.65 29.8721 236.374 29.5426C237.022 29.2475 237.183 28.7408 237.115 28.2982C236.996 27.521 236.902 26.7488 236.868 25.9717C237.507 25.8487 238.087 25.652 238.589 25.4011C238.64 25.7257 238.819 26.075 238.538 26.375C238.206 26.8127 237.524 27.1669 237.413 27.6538C237.328 27.9293 237.754 28.185 238.231 28.1752C239.126 28.1703 239.884 27.8407 240.54 27.521C241.46 27.0685 242.031 26.4045 242.125 25.7011C243.471 26.4881 244.843 27.2702 246.342 27.9588C247.211 28.3719 248.336 28.6277 249.478 28.5884C250.534 28.549 251.446 28.1408 252.042 27.6489C252.613 27.162 253.124 26.6209 253.201 26.0258C253.269 25.3864 252.741 24.7961 252.11 24.2944C250.986 23.3992 249.784 22.5286 248.592 21.663C250.355 20.9399 251.77 19.789 251.804 18.5003C251.812 18.2298 251.65 17.8707 251.105 17.8314C250.577 17.8117 250.236 18.097 249.98 18.3134C249.341 18.8397 248.66 19.4201 247.586 19.666C246.811 17.674 245.55 15.7262 243.701 13.9801C242.986 13.321 242.21 12.6767 241.222 12.1455C240.66 11.8504 240.029 11.5651 239.254 11.5011C237.379 11.3536 235.437 11.5798 233.792 12.1258C231.739 12.8095 230.146 13.8867 229.047 15.0819Z" fill="black"/>
</g>
<g opacity="0.25">
<g filter="url(#filter12_d)">
<path opacity="0.25" d="M11.8184 33.2985C10.0535 32.2796 9.17171 30.9441 9.17311 29.6087C9.17441 28.2753 9.17301 27.658 9.17301 26.5059L32.8074 13.8079C36.3345 11.7717 42.0532 11.7717 45.5803 13.8079L69.2139 26.4153C69.2139 27.5346 69.22 28.2861 69.2139 29.6251C69.2078 30.9549 68.326 32.2836 66.5686 33.2981L45.5796 45.4151C42.0525 47.4514 36.3339 47.4513 32.8067 45.4151L11.8184 33.2985Z" fill="url(#paint39_linear)"/>
</g>
<path d="M3.45221 31.4004C1.14905 30.0707 -0.00166034 28.3277 9.9659e-05 26.585C0.00184966 24.845 0 24.0395 0 22.5361L30.8423 5.96542C35.4451 3.3082 42.9079 3.3082 47.5107 5.96542L78.352 22.4178C78.352 23.8784 78.36 24.8592 78.352 26.6066C78.3441 28.3419 77.1934 30.0758 74.8999 31.3998L47.5098 47.2121C42.907 49.8694 35.4443 49.8694 30.8414 47.2122L3.45221 31.4004Z" fill="url(#paint40_linear)"/>
<path d="M3.45281 27.4273C-1.15009 24.7701 -1.15009 20.4619 3.45271 17.8047L30.8419 1.99292C35.4448 -0.664301 42.9075 -0.664311 47.5104 1.99292L74.8996 17.8047C79.5024 20.4619 79.5024 24.7701 74.8996 27.4273L47.5104 43.2391C42.9075 45.8964 35.4448 45.8964 30.842 43.2391L3.45281 27.4273Z" fill="url(#paint41_radial)"/>
<path d="M30.8048 18.9527C30.6399 18.9451 30.5038 18.9666 30.4116 19.0198C30.3462 19.0633 30.3009 19.1122 30.276 19.1666C30.0699 19.8796 31.2708 21.7052 33.3427 23.8333L34.0628 23.4233C35.4863 22.6187 36.9531 21.789 38.414 20.9685C36.7189 20.4277 35.2334 19.983 33.9878 19.6455C32.1748 19.1556 31.2616 18.9975 30.8048 18.9527Z" fill="#00A7CF"/>
<path fill-rule="evenodd" clip-rule="evenodd" d="M25.685 29.7277C18.883 25.8009 19.4081 19.1292 26.8576 14.8286C34.3071 10.528 45.8638 10.2249 52.6659 14.1517C59.4679 18.0785 58.9428 24.7502 51.4933 29.0508C44.0438 33.3514 32.4871 33.6545 25.685 29.7277ZM49.0769 16.5149L49.0959 16.4696C49.132 16.3403 49.0905 16.21 48.98 16.1024C48.7101 15.8527 48.1091 15.7998 47.6552 15.9819L47.6498 15.985L47.639 15.9913L47.6281 15.9976C47.6233 15.9997 47.6185 16.0018 47.6138 16.0039C47.5768 16.0203 47.5435 16.035 47.5099 16.0544L47.4025 16.105C44.9894 17.3267 42.6112 18.6311 40.3882 19.8687L40.368 19.8633C35.6701 18.3772 30.6276 16.9988 28.8397 18.0309C27.176 18.9971 28.119 21.2743 31.6325 24.7977C30.707 25.3206 29.8574 25.7997 29.057 26.2446L28.9378 26.3134C28.8353 26.3669 28.7427 26.426 28.6551 26.488C28.285 26.7874 28.3161 27.1806 28.7322 27.4145C29.1526 27.6573 29.8551 27.6687 30.3745 27.4431L30.3952 27.4426L32.8874 26.0038C33.6142 26.6924 34.3685 27.3593 35.1157 27.9846L35.4455 28.2625L35.4653 28.2739C35.6582 28.3853 35.9447 28.4256 36.2273 28.3823C36.6827 28.3137 36.9882 28.0459 36.9102 27.7882L36.9413 27.7874L34.5936 25.0246L40.4773 21.6279C42.4804 22.265 44.5442 22.9185 46.6657 23.4301L46.6686 23.4308C47.8071 23.7059 50.4528 24.3453 51.751 23.6072L51.7672 23.5978C53.761 22.4468 51.5978 20.2972 50.1634 18.8749C50.1063 18.8175 50.0505 18.7617 49.9964 18.7076C49.7598 18.4709 49.5551 18.2662 49.4126 18.0974L49.3417 18.0127C49.2475 17.8957 49.0025 17.8544 48.7905 17.9197C48.5785 17.9849 48.4842 18.1307 48.5785 18.2477L48.644 18.3355C48.7752 18.5082 48.9017 18.6751 49.023 18.8351C49.1442 18.9949 49.2601 19.1479 49.3702 19.2928L49.3841 19.3133L49.4146 19.3533C50.7577 21.1139 51.3715 21.9186 50.6026 22.3625L50.5809 22.375L50.5701 22.3813L50.5484 22.3938C49.5635 22.9623 45.021 21.403 43.2577 20.7977L43.2226 20.7856C43.0583 20.7288 42.8986 20.6747 42.7477 20.6235C42.6258 20.5822 42.5097 20.5428 42.4016 20.5056L48.7892 16.818C48.903 16.7523 48.9921 16.6724 49.0455 16.5844L49.0578 16.5602L49.0705 16.53L49.0769 16.5149Z" fill="#00A7CF"/>
</g>
</g>
<defs>
<filter id="filter0_d" x="284.839" y="411.489" width="100.044" height="121.662" filterUnits="userSpaceOnUse" color-interpolation-filters="sRGB">
<feFlood flood-opacity="0" result="BackgroundImageFix"/>
<feColorMatrix in="SourceAlpha" type="matrix" values="0 0 0 0 0 0 0 0 0 0 0 0 0 0 0 0 0 0 127 0"/>
<feOffset dy="67"/>
<feGaussianBlur stdDeviation="10"/>
<feColorMatrix type="matrix" values="0 0 0 0 0.14902 0 0 0 0 0.180392 0 0 0 0 0.309804 0 0 0 0.04 0"/>
<feBlend mode="normal" in2="BackgroundImageFix" result="effect1_dropShadow"/>
<feBlend mode="normal" in="SourceGraphic" in2="effect1_dropShadow" result="shape"/>
</filter>
<filter id="filter1_d" x="186.284" y="354.459" width="100.043" height="121.662" filterUnits="userSpaceOnUse" color-interpolation-filters="sRGB">
<feFlood flood-opacity="0" result="BackgroundImageFix"/>
<feColorMatrix in="SourceAlpha" type="matrix" values="0 0 0 0 0 0 0 0 0 0 0 0 0 0 0 0 0 0 127 0"/>
<feOffset dy="67"/>
<feGaussianBlur stdDeviation="10"/>
<feColorMatrix type="matrix" values="0 0 0 0 0.14902 0 0 0 0 0.180392 0 0 0 0 0.309804 0 0 0 0.04 0"/>
<feBlend mode="normal" in2="BackgroundImageFix" result="effect1_dropShadow"/>
<feBlend mode="normal" in="SourceGraphic" in2="effect1_dropShadow" result="shape"/>
</filter>
<filter id="filter2_d" x="383.394" y="354.459" width="100.044" height="121.662" filterUnits="userSpaceOnUse" color-interpolation-filters="sRGB">
<feFlood flood-opacity="0" result="BackgroundImageFix"/>
<feColorMatrix in="SourceAlpha" type="matrix" values="0 0 0 0 0 0 0 0 0 0 0 0 0 0 0 0 0 0 127 0"/>
<feOffset dy="67"/>
<feGaussianBlur stdDeviation="10"/>
<feColorMatrix type="matrix" values="0 0 0 0 0.14902 0 0 0 0 0.180392 0 0 0 0 0.309804 0 0 0 0.04 0"/>
<feBlend mode="normal" in2="BackgroundImageFix" result="effect1_dropShadow"/>
<feBlend mode="normal" in="SourceGraphic" in2="effect1_dropShadow" result="shape"/>
</filter>
<filter id="filter3_d" x="284.839" y="297.429" width="100.044" height="121.662" filterUnits="userSpaceOnUse" color-interpolation-filters="sRGB">
<feFlood flood-opacity="0" result="BackgroundImageFix"/>
<feColorMatrix in="SourceAlpha" type="matrix" values="0 0 0 0 0 0 0 0 0 0 0 0 0 0 0 0 0 0 127 0"/>
<feOffset dy="67"/>
<feGaussianBlur stdDeviation="10"/>
<feColorMatrix type="matrix" values="0 0 0 0 0.14902 0 0 0 0 0.180392 0 0 0 0 0.309804 0 0 0 0.04 0"/>
<feBlend mode="normal" in2="BackgroundImageFix" result="effect1_dropShadow"/>
<feBlend mode="normal" in="SourceGraphic" in2="effect1_dropShadow" result="shape"/>
</filter>
<filter id="filter4_d" x="195.035" y="472.902" width="100.044" height="121.662" filterUnits="userSpaceOnUse" color-interpolation-filters="sRGB">
<feFlood flood-opacity="0" result="BackgroundImageFix"/>
<feColorMatrix in="SourceAlpha" type="matrix" values="0 0 0 0 0 0 0 0 0 0 0 0 0 0 0 0 0 0 127 0"/>
<feOffset dy="67"/>
<feGaussianBlur stdDeviation="10"/>
<feColorMatrix type="matrix" values="0 0 0 0 0.14902 0 0 0 0 0.180392 0 0 0 0 0.309804 0 0 0 0.04 0"/>
<feBlend mode="normal" in2="BackgroundImageFix" result="effect1_dropShadow"/>
<feBlend mode="normal" in="SourceGraphic" in2="effect1_dropShadow" result="shape"/>
</filter>
<filter id="filter5_d" x="383.394" y="240.4" width="100.044" height="121.661" filterUnits="userSpaceOnUse" color-interpolation-filters="sRGB">
<feFlood flood-opacity="0" result="BackgroundImageFix"/>
<feColorMatrix in="SourceAlpha" type="matrix" values="0 0 0 0 0 0 0 0 0 0 0 0 0 0 0 0 0 0 127 0"/>
<feOffset dy="67"/>
<feGaussianBlur stdDeviation="10"/>
<feColorMatrix type="matrix" values="0 0 0 0 0.14902 0 0 0 0 0.180392 0 0 0 0 0.309804 0 0 0 0.04 0"/>
<feBlend mode="normal" in2="BackgroundImageFix" result="effect1_dropShadow"/>
<feBlend mode="normal" in="SourceGraphic" in2="effect1_dropShadow" result="shape"/>
</filter>
<filter id="filter6_d" x="284.839" y="183.37" width="100.044" height="121.662" filterUnits="userSpaceOnUse" color-interpolation-filters="sRGB">
<feFlood flood-opacity="0" result="BackgroundImageFix"/>
<feColorMatrix in="SourceAlpha" type="matrix" values="0 0 0 0 0 0 0 0 0 0 0 0 0 0 0 0 0 0 127 0"/>
<feOffset dy="67"/>
<feGaussianBlur stdDeviation="10"/>
<feColorMatrix type="matrix" values="0 0 0 0 0.14902 0 0 0 0 0.180392 0 0 0 0 0.309804 0 0 0 0.04 0"/>
<feBlend mode="normal" in2="BackgroundImageFix" result="effect1_dropShadow"/>
<feBlend mode="normal" in="SourceGraphic" in2="effect1_dropShadow" result="shape"/>
</filter>
<filter id="filter7_d" x="186.284" y="126.34" width="100.043" height="121.662" filterUnits="userSpaceOnUse" color-interpolation-filters="sRGB">
<feFlood flood-opacity="0" result="BackgroundImageFix"/>
<feColorMatrix in="SourceAlpha" type="matrix" values="0 0 0 0 0 0 0 0 0 0 0 0 0 0 0 0 0 0 127 0"/>
<feOffset dy="67"/>
<feGaussianBlur stdDeviation="10"/>
<feColorMatrix type="matrix" values="0 0 0 0 0.14902 0 0 0 0 0.180392 0 0 0 0 0.309804 0 0 0 0.04 0"/>
<feBlend mode="normal" in2="BackgroundImageFix" result="effect1_dropShadow"/>
<feBlend mode="normal" in="SourceGraphic" in2="effect1_dropShadow" result="shape"/>
</filter>
<filter id="filter8_d" x="383.394" y="126.34" width="100.044" height="121.662" filterUnits="userSpaceOnUse" color-interpolation-filters="sRGB">
<feFlood flood-opacity="0" result="BackgroundImageFix"/>
<feColorMatrix in="SourceAlpha" type="matrix" values="0 0 0 0 0 0 0 0 0 0 0 0 0 0 0 0 0 0 127 0"/>
<feOffset dy="67"/>
<feGaussianBlur stdDeviation="10"/>
<feColorMatrix type="matrix" values="0 0 0 0 0.14902 0 0 0 0 0.180392 0 0 0 0 0.309804 0 0 0 0.04 0"/>
<feBlend mode="normal" in2="BackgroundImageFix" result="effect1_dropShadow"/>
<feBlend mode="normal" in="SourceGraphic" in2="effect1_dropShadow" result="shape"/>
</filter>
<filter id="filter9_d" x="87.7278" y="69.3103" width="100.044" height="121.662" filterUnits="userSpaceOnUse" color-interpolation-filters="sRGB">
<feFlood flood-opacity="0" result="BackgroundImageFix"/>
<feColorMatrix in="SourceAlpha" type="matrix" values="0 0 0 0 0 0 0 0 0 0 0 0 0 0 0 0 0 0 127 0"/>
<feOffset dy="67"/>
<feGaussianBlur stdDeviation="10"/>
<feColorMatrix type="matrix" values="0 0 0 0 0.14902 0 0 0 0 0.180392 0 0 0 0 0.309804 0 0 0 0.04 0"/>
<feBlend mode="normal" in2="BackgroundImageFix" result="effect1_dropShadow"/>
<feBlend mode="normal" in="SourceGraphic" in2="effect1_dropShadow" result="shape"/>
</filter>
<filter id="filter10_d" x="284.839" y="69.3103" width="100.044" height="121.662" filterUnits="userSpaceOnUse" color-interpolation-filters="sRGB">
<feFlood flood-opacity="0" result="BackgroundImageFix"/>
<feColorMatrix in="SourceAlpha" type="matrix" values="0 0 0 0 0 0 0 0 0 0 0 0 0 0 0 0 0 0 127 0"/>
<feOffset dy="67"/>
<feGaussianBlur stdDeviation="10"/>
<feColorMatrix type="matrix" values="0 0 0 0 0.14902 0 0 0 0 0.180392 0 0 0 0 0.309804 0 0 0 0.04 0"/>
<feBlend mode="normal" in2="BackgroundImageFix" result="effect1_dropShadow"/>
<feBlend mode="normal" in="SourceGraphic" in2="effect1_dropShadow" result="shape"/>
</filter>
<filter id="filter11_d" x="186.284" y="12.2807" width="100.043" height="121.662" filterUnits="userSpaceOnUse" color-interpolation-filters="sRGB">
<feFlood flood-opacity="0" result="BackgroundImageFix"/>
<feColorMatrix in="SourceAlpha" type="matrix" values="0 0 0 0 0 0 0 0 0 0 0 0 0 0 0 0 0 0 127 0"/>
<feOffset dy="67"/>
<feGaussianBlur stdDeviation="10"/>
<feColorMatrix type="matrix" values="0 0 0 0 0.14902 0 0 0 0 0.180392 0 0 0 0 0.309804 0 0 0 0.04 0"/>
<feBlend mode="normal" in2="BackgroundImageFix" result="effect1_dropShadow"/>
<feBlend mode="normal" in="SourceGraphic" in2="effect1_dropShadow" result="shape"/>
</filter>
<filter id="filter12_d" x="-10.827" y="12.2807" width="100.044" height="121.662" filterUnits="userSpaceOnUse" color-interpolation-filters="sRGB">
<feFlood flood-opacity="0" result="BackgroundImageFix"/>
<feColorMatrix in="SourceAlpha" type="matrix" values="0 0 0 0 0 0 0 0 0 0 0 0 0 0 0 0 0 0 127 0"/>
<feOffset dy="67"/>
<feGaussianBlur stdDeviation="10"/>
<feColorMatrix type="matrix" values="0 0 0 0 0.14902 0 0 0 0 0.180392 0 0 0 0 0.309804 0 0 0 0.04 0"/>
<feBlend mode="normal" in2="BackgroundImageFix" result="effect1_dropShadow"/>
<feBlend mode="normal" in="SourceGraphic" in2="effect1_dropShadow" result="shape"/>
</filter>
<linearGradient id="paint0_linear" x1="365.716" y1="428.82" x2="308.174" y2="408.641" gradientUnits="userSpaceOnUse">
<stop stop-color="#FCFDFF"/>
<stop offset="0.354167" stop-color="#E6EAF2"/>
<stop offset="1" stop-color="white"/>
</linearGradient>
<linearGradient id="paint1_linear" x1="375.109" y1="425.798" x2="300.018" y2="399.465" gradientUnits="userSpaceOnUse">
<stop stop-color="#FCFDFF"/>
<stop offset="0.354167" stop-color="#E6EAF2"/>
<stop offset="1" stop-color="white"/>
</linearGradient>
<radialGradient id="paint2_radial" cx="0" cy="0" r="1" gradientUnits="userSpaceOnUse" gradientTransform="translate(355.09 425.569) rotate(179.096) scale(235.557 52.0995)">
<stop stop-color="#FCFDFF"/>
<stop offset="1" stop-color="white"/>
</radialGradient>
<linearGradient id="paint3_linear" x1="267.161" y1="371.791" x2="209.619" y2="351.612" gradientUnits="userSpaceOnUse">
<stop stop-color="#FCFDFF"/>
<stop offset="0.354167" stop-color="#E6EAF2"/>
<stop offset="1" stop-color="white"/>
</linearGradient>
<linearGradient id="paint4_linear" x1="276.554" y1="368.768" x2="201.463" y2="342.435" gradientUnits="userSpaceOnUse">
<stop stop-color="#FCFDFF"/>
<stop offset="0.354167" stop-color="#E6EAF2"/>
<stop offset="1" stop-color="white"/>
</linearGradient>
<radialGradient id="paint5_radial" cx="0" cy="0" r="1" gradientUnits="userSpaceOnUse" gradientTransform="translate(256.534 368.539) rotate(179.096) scale(235.557 52.0995)">
<stop stop-color="#FCFDFF"/>
<stop offset="1" stop-color="white"/>
</radialGradient>
<linearGradient id="paint6_linear" x1="464.271" y1="371.791" x2="406.729" y2="351.612" gradientUnits="userSpaceOnUse">
<stop stop-color="#FCFDFF"/>
<stop offset="0.354167" stop-color="#E6EAF2"/>
<stop offset="1" stop-color="white"/>
</linearGradient>
<linearGradient id="paint7_linear" x1="473.664" y1="368.768" x2="398.573" y2="342.435" gradientUnits="userSpaceOnUse">
<stop stop-color="#FCFDFF"/>
<stop offset="0.354167" stop-color="#E6EAF2"/>
<stop offset="1" stop-color="white"/>
</linearGradient>
<radialGradient id="paint8_radial" cx="0" cy="0" r="1" gradientUnits="userSpaceOnUse" gradientTransform="translate(453.645 368.539) rotate(179.096) scale(235.557 52.0995)">
<stop stop-color="#FCFDFF"/>
<stop offset="1" stop-color="white"/>
</radialGradient>
<linearGradient id="paint9_linear" x1="365.716" y1="314.761" x2="308.174" y2="294.582" gradientUnits="userSpaceOnUse">
<stop stop-color="#FCFDFF"/>
<stop offset="0.354167" stop-color="#E6EAF2"/>
<stop offset="1" stop-color="white"/>
</linearGradient>
<linearGradient id="paint10_linear" x1="375.109" y1="311.739" x2="300.018" y2="285.405" gradientUnits="userSpaceOnUse">
<stop stop-color="#FCFDFF"/>
<stop offset="0.354167" stop-color="#E6EAF2"/>
<stop offset="1" stop-color="white"/>
</linearGradient>
<radialGradient id="paint11_radial" cx="0" cy="0" r="1" gradientUnits="userSpaceOnUse" gradientTransform="translate(355.09 311.509) rotate(179.096) scale(235.557 52.0995)">
<stop stop-color="#FCFDFF"/>
<stop offset="1" stop-color="white"/>
</radialGradient>
<radialGradient id="paint12_radial" cx="0" cy="0" r="1" gradientUnits="userSpaceOnUse" gradientTransform="translate(321.238 298.861) rotate(-29.9978) scale(47.5861 41.0948)">
<stop stop-color="white"/>
<stop offset="0.22" stop-color="white"/>
<stop offset="1" stop-color="#D9D9D8"/>
</radialGradient>
<linearGradient id="paint13_linear" x1="275.913" y1="490.234" x2="218.37" y2="470.055" gradientUnits="userSpaceOnUse">
<stop stop-color="#FCFDFF"/>
<stop offset="0.354167" stop-color="#E6EAF2"/>
<stop offset="1" stop-color="white"/>
</linearGradient>
<linearGradient id="paint14_linear" x1="285.306" y1="487.211" x2="210.214" y2="460.878" gradientUnits="userSpaceOnUse">
<stop stop-color="#FCFDFF"/>
<stop offset="0.354167" stop-color="#E6EAF2"/>
<stop offset="1" stop-color="white"/>
</linearGradient>
<radialGradient id="paint15_radial" cx="0" cy="0" r="1" gradientUnits="userSpaceOnUse" gradientTransform="translate(265.286 486.982) rotate(179.096) scale(235.557 52.0995)">
<stop stop-color="#FCFDFF"/>
<stop offset="1" stop-color="white"/>
</radialGradient>
<linearGradient id="paint16_linear" x1="464.271" y1="257.731" x2="406.729" y2="237.552" gradientUnits="userSpaceOnUse">
<stop stop-color="#FCFDFF"/>
<stop offset="0.354167" stop-color="#E6EAF2"/>
<stop offset="1" stop-color="white"/>
</linearGradient>
<linearGradient id="paint17_linear" x1="473.664" y1="254.709" x2="398.573" y2="228.376" gradientUnits="userSpaceOnUse">
<stop stop-color="#FCFDFF"/>
<stop offset="0.354167" stop-color="#E6EAF2"/>
<stop offset="1" stop-color="white"/>
</linearGradient>
<radialGradient id="paint18_radial" cx="0" cy="0" r="1" gradientUnits="userSpaceOnUse" gradientTransform="translate(453.645 254.479) rotate(179.096) scale(235.557 52.0995)">
<stop stop-color="#FCFDFF"/>
<stop offset="1" stop-color="white"/>
</radialGradient>
<linearGradient id="paint19_linear" x1="365.716" y1="200.701" x2="308.174" y2="180.522" gradientUnits="userSpaceOnUse">
<stop stop-color="#FCFDFF"/>
<stop offset="0.354167" stop-color="#E6EAF2"/>
<stop offset="1" stop-color="white"/>
</linearGradient>
<linearGradient id="paint20_linear" x1="375.109" y1="197.679" x2="300.018" y2="171.346" gradientUnits="userSpaceOnUse">
<stop stop-color="#FCFDFF"/>
<stop offset="0.354167" stop-color="#E6EAF2"/>
<stop offset="1" stop-color="white"/>
</linearGradient>
<radialGradient id="paint21_radial" cx="0" cy="0" r="1" gradientUnits="userSpaceOnUse" gradientTransform="translate(355.09 197.45) rotate(179.096) scale(235.557 52.0995)">
<stop stop-color="#FCFDFF"/>
<stop offset="1" stop-color="white"/>
</radialGradient>
<linearGradient id="paint22_linear" x1="267.161" y1="143.672" x2="209.619" y2="123.493" gradientUnits="userSpaceOnUse">
<stop stop-color="#FCFDFF"/>
<stop offset="0.354167" stop-color="#E6EAF2"/>
<stop offset="1" stop-color="white"/>
</linearGradient>
<linearGradient id="paint23_linear" x1="276.554" y1="140.649" x2="201.463" y2="114.316" gradientUnits="userSpaceOnUse">
<stop stop-color="#FCFDFF"/>
<stop offset="0.354167" stop-color="#E6EAF2"/>
<stop offset="1" stop-color="white"/>
</linearGradient>
<radialGradient id="paint24_radial" cx="0" cy="0" r="1" gradientUnits="userSpaceOnUse" gradientTransform="translate(256.534 140.42) rotate(179.096) scale(235.557 52.0995)">
<stop stop-color="#FCFDFF"/>
<stop offset="1" stop-color="white"/>
</radialGradient>
<linearGradient id="paint25_linear" x1="464.271" y1="143.672" x2="406.729" y2="123.493" gradientUnits="userSpaceOnUse">
<stop stop-color="#FCFDFF"/>
<stop offset="0.354167" stop-color="#E6EAF2"/>
<stop offset="1" stop-color="white"/>
</linearGradient>
<linearGradient id="paint26_linear" x1="473.664" y1="140.649" x2="398.573" y2="114.316" gradientUnits="userSpaceOnUse">
<stop stop-color="#FCFDFF"/>
<stop offset="0.354167" stop-color="#E6EAF2"/>
<stop offset="1" stop-color="white"/>
</linearGradient>
<radialGradient id="paint27_radial" cx="0" cy="0" r="1" gradientUnits="userSpaceOnUse" gradientTransform="translate(453.645 140.42) rotate(179.096) scale(235.557 52.0995)">
<stop stop-color="#FCFDFF"/>
<stop offset="1" stop-color="white"/>
</radialGradient>
<linearGradient id="paint28_linear" x1="422.432" y1="129.67" x2="433.378" y2="148.63" gradientUnits="userSpaceOnUse">
<stop stop-color="#4387FD"/>
<stop offset="1" stop-color="#4683EA"/>
</linearGradient>
<linearGradient id="paint29_linear" x1="422.432" y1="129.67" x2="433.378" y2="148.63" gradientUnits="userSpaceOnUse">
<stop stop-color="#4387FD"/>
<stop offset="1" stop-color="#4683EA"/>
</linearGradient>
<linearGradient id="paint30_linear" x1="168.606" y1="86.6418" x2="111.063" y2="66.4626" gradientUnits="userSpaceOnUse">
<stop stop-color="#FCFDFF"/>
<stop offset="0.354167" stop-color="#E6EAF2"/>
<stop offset="1" stop-color="white"/>
</linearGradient>
<linearGradient id="paint31_linear" x1="177.999" y1="83.6193" x2="102.907" y2="57.286" gradientUnits="userSpaceOnUse">
<stop stop-color="#FCFDFF"/>
<stop offset="0.354167" stop-color="#E6EAF2"/>
<stop offset="1" stop-color="white"/>
</linearGradient>
<radialGradient id="paint32_radial" cx="0" cy="0" r="1" gradientUnits="userSpaceOnUse" gradientTransform="translate(157.979 83.3899) rotate(179.096) scale(235.557 52.0995)">
<stop stop-color="#FCFDFF"/>
<stop offset="1" stop-color="white"/>
</radialGradient>
<linearGradient id="paint33_linear" x1="365.716" y1="86.6418" x2="308.174" y2="66.4626" gradientUnits="userSpaceOnUse">
<stop stop-color="#FCFDFF"/>
<stop offset="0.354167" stop-color="#E6EAF2"/>
<stop offset="1" stop-color="white"/>
</linearGradient>
<linearGradient id="paint34_linear" x1="375.109" y1="83.6193" x2="300.018" y2="57.286" gradientUnits="userSpaceOnUse">
<stop stop-color="#FCFDFF"/>
<stop offset="0.354167" stop-color="#E6EAF2"/>
<stop offset="1" stop-color="white"/>
</linearGradient>
<radialGradient id="paint35_radial" cx="0" cy="0" r="1" gradientUnits="userSpaceOnUse" gradientTransform="translate(355.09 83.3899) rotate(179.096) scale(235.557 52.0995)">
<stop stop-color="#FCFDFF"/>
<stop offset="1" stop-color="white"/>
</radialGradient>
<linearGradient id="paint36_linear" x1="267.161" y1="29.6122" x2="209.619" y2="9.43305" gradientUnits="userSpaceOnUse">
<stop stop-color="#FCFDFF"/>
<stop offset="0.354167" stop-color="#E6EAF2"/>
<stop offset="1" stop-color="white"/>
</linearGradient>
<linearGradient id="paint37_linear" x1="276.554" y1="26.5897" x2="201.463" y2="0.256399" gradientUnits="userSpaceOnUse">
<stop stop-color="#FCFDFF"/>
<stop offset="0.354167" stop-color="#E6EAF2"/>
<stop offset="1" stop-color="white"/>
</linearGradient>
<radialGradient id="paint38_radial" cx="0" cy="0" r="1" gradientUnits="userSpaceOnUse" gradientTransform="translate(256.534 26.3603) rotate(179.096) scale(235.557 52.0995)">
<stop stop-color="#FCFDFF"/>
<stop offset="1" stop-color="white"/>
</radialGradient>
<linearGradient id="paint39_linear" x1="70.0502" y1="29.6122" x2="12.508" y2="9.43305" gradientUnits="userSpaceOnUse">
<stop stop-color="#FCFDFF"/>
<stop offset="0.354167" stop-color="#E6EAF2"/>
<stop offset="1" stop-color="white"/>
</linearGradient>
<linearGradient id="paint40_linear" x1="79.4433" y1="26.5897" x2="4.35201" y2="0.256389" gradientUnits="userSpaceOnUse">
<stop stop-color="#FCFDFF"/>
<stop offset="0.354167" stop-color="#E6EAF2"/>
<stop offset="1" stop-color="white"/>
</linearGradient>
<radialGradient id="paint41_radial" cx="0" cy="0" r="1" gradientUnits="userSpaceOnUse" gradientTransform="translate(59.4238 26.3603) rotate(179.096) scale(235.557 52.0995)">
<stop stop-color="#FCFDFF"/>
<stop offset="1" stop-color="white"/>
</radialGradient>
<clipPath id="clip0">
<rect width="571" height="510" fill="white"/>
</clipPath>
</defs>
</svg>